<svg width="166" height="40" viewBox="0 0 166 40" fill="none" xmlns="http://www.w3.org/2000/svg">
<g clip-path="url(#clip0_856_14112)">
<path d="M12.4533 15.8794C11.4913 14.61 9.78687 13.8801 7.97914 13.8801C4.02149 13.8865 1 16.933 1 21.122C1 25.311 4.15707 28.3322 8.44398 28.3322C12.7309 28.3322 15.888 25.2793 15.888 21.1537V7H12.4533V15.8794ZM8.46981 25.0571C6.16495 25.0571 4.48634 23.3815 4.48634 21.1157C4.48634 18.8498 6.15849 17.1742 8.46981 17.1742C10.7811 17.1742 12.3952 18.8498 12.3952 21.1157C12.3952 23.3815 10.7488 25.0571 8.46981 25.0571Z" fill="#212529"/>
<path d="M22.1762 22.2838H32.364C32.4996 21.6618 32.5577 21.0715 32.5577 20.5003C32.5577 16.6921 29.7041 13.8867 25.5269 13.8867C21.3498 13.8867 18.0571 16.8571 18.0571 21.1223C18.0571 25.3874 21.1044 28.3324 25.3591 28.3324C28.6517 28.3324 31.4279 26.9551 32.4738 23.7436H29.0972C28.4903 24.9558 26.9538 25.3874 25.5011 25.3874C23.2737 25.3874 21.6016 24.0926 21.6016 22.7979C21.6016 22.4742 21.7953 22.2838 22.1762 22.2838V22.2838ZM21.5176 19.6942C21.8727 17.8599 23.4416 16.7492 25.585 16.7492C27.7285 16.7492 29.207 18.0186 29.207 19.2626C29.207 19.5355 29.0391 19.6942 28.7679 19.6942H21.5176Z" fill="#212529"/>
<path d="M38.3749 22.2838H48.5628C48.6983 21.6618 48.7565 21.0715 48.7565 20.5003C48.7565 16.6921 45.9028 13.8867 41.7257 13.8867C37.5485 13.8867 34.2559 16.8571 34.2559 21.1223C34.2559 25.3874 37.3032 28.3324 41.5578 28.3324C44.8505 28.3324 47.6266 26.9551 48.6725 23.7436H45.2959C44.6891 24.9558 43.1525 25.3874 41.6998 25.3874C39.4725 25.3874 37.8003 24.0926 37.8003 22.7979C37.8003 22.4742 37.994 22.2838 38.3749 22.2838V22.2838ZM37.7164 19.6942C38.0715 17.8599 39.6403 16.7492 41.7773 16.7492C43.9143 16.7492 45.3992 18.0186 45.3992 19.2626C45.3992 19.5355 45.2314 19.6942 44.9602 19.6942H37.7099H37.7164Z" fill="#212529"/>
<path d="M58.5054 13.8867C54.2508 13.8867 51.0356 16.965 51.0356 21.1223V34.0003H54.4703V26.3585C55.4065 27.6025 57.1626 28.3324 58.8928 28.3324C62.8505 28.3324 65.9494 25.2795 65.9494 21.1223C65.9494 16.965 62.7665 13.8867 58.5054 13.8867ZM58.5054 25.0637C56.2522 25.0637 54.522 23.3627 54.522 21.1223C54.522 18.8818 56.2522 17.1808 58.5054 17.1808C60.7587 17.1808 62.4631 18.8818 62.4631 21.1223C62.4631 23.3627 60.7328 25.0637 58.5054 25.0637Z" fill="#212529"/>
<path d="M164.826 18.5C164.367 18.1636 163.166 18.5127 163.147 18.519C162.166 18.8237 161.146 19.1918 160.067 19.5853C157.524 20.5056 154.812 21.4386 152.372 21.7306C152.372 21.7306 148.362 22.1114 147.962 21.8195C147.898 21.6671 148.356 20.5183 148.382 20.3914C148.646 19.0522 148.724 18.7412 148.692 18.5317C148.911 15.3773 144.114 17.2623 143.404 17.5543C142.093 18.1001 140.466 18.7031 138.704 19.4838C137.438 20.0423 135.515 20.7913 134.204 21.1911C133.01 21.5592 132.119 21.6925 132.37 21.3815C132.667 20.9944 134.243 19.3441 134.443 18.957C134.862 18.2715 134.817 17.7257 134.301 17.3004C134.288 17.2877 134.275 17.2814 134.256 17.2687C134.249 17.2623 134.236 17.256 134.23 17.2496C134.146 17.1925 134.075 17.1671 134.01 17.1608C133.765 17.0973 133.436 17.11 132.99 17.2116C130.873 17.6114 128.994 18.3286 125.843 19.3632C124.397 19.8392 120.969 20.969 119.71 21.28C118.141 21.6735 116.656 22.048 115.907 22.213L115.81 22.232L115.855 22.1495C116.12 21.6862 116.275 21.4259 116.437 21.1657C116.604 20.8674 116.805 20.5691 117.005 20.2645C117.334 19.7694 117.67 19.2489 117.902 18.7031C118.218 17.897 118.154 17.1354 117.728 16.6276C117.295 16.1072 116.54 15.8914 115.642 16.0437C115.1 16.1516 114.558 16.3738 114.151 16.5515C113.028 16.9704 112.285 16.9894 111.304 15.9104C111.233 15.8406 111.149 15.7708 111.084 15.7391C109.444 14.7299 107.727 14.641 105.978 15.4788C104.77 16.0945 103.305 17.275 103.182 19.452C103.117 20.3089 103.427 21.0134 104.002 21.4513C102.485 21.8702 100.922 22.2384 98.6497 22.5748C98.2236 22.6382 97.804 22.708 97.3649 22.7779C95.5508 23.0698 93.672 23.3745 91.7997 23.4951C91.2574 23.5395 89.9984 23.3999 89.5078 22.8794C89.3464 22.708 89.2818 22.5176 89.3141 22.3209C89.5852 21.4704 90.218 21.0007 90.8313 20.5437C90.9346 20.4676 91.0379 20.3914 91.1347 20.3152C91.3349 20.1756 91.5221 20.0423 91.7158 19.909C92.0902 19.6488 92.4841 19.3822 92.8715 19.0712C93.1362 18.8427 93.304 18.5254 93.3169 18.2271C93.3234 18.0049 93.2459 17.8018 93.091 17.6495C92.8069 17.3195 92.1354 17.0656 91.7997 17.1671C90.3987 17.548 88.8622 18.1192 87.6419 19.3251C87.1319 19.433 86.6283 19.5409 86.1312 19.6488C83.058 20.3089 80.1592 20.9309 76.7697 21.7433C76.3565 21.8448 76.0014 21.8956 75.6593 21.8956C75.0395 21.8956 74.6844 21.5846 74.1227 20.8801C73.8128 20.4929 73.335 20.1185 72.8766 19.763C72.4053 19.3949 71.8759 18.9824 71.8566 18.8047C71.8566 18.7793 71.8759 18.7412 71.934 18.7094C72.1471 18.6015 72.5797 18.665 72.7023 18.7221C73.038 18.8872 73.2705 19.2236 73.4964 19.5536C73.7999 19.9915 74.1098 20.4422 74.665 20.4422C75.401 20.4422 76.0983 19.6869 76.0983 18.8808C76.0983 17.2687 73.9484 16.1897 71.947 16.1897C69.9455 16.1897 68.5252 17.3448 68.5252 18.8808C68.5252 19.7884 69.5388 20.696 70.4298 21.4958C71.0689 22.067 71.7274 22.6636 71.7726 23.0635C71.8307 23.5268 70.8817 23.8505 70.0424 24.1298C69.0933 24.4535 68.1895 24.7581 68.1895 25.3738C68.1895 26.3829 68.9965 26.9859 69.7777 26.9859C70.7719 26.9859 72.8185 26.1671 73.9484 25.6149C74.523 25.3611 74.9749 25.031 75.3752 24.7391C75.7109 24.4915 76.0079 24.2757 76.292 24.1742C76.4792 24.1044 76.873 23.952 77.3572 23.768C78.5839 23.2983 80.4433 22.5811 80.8565 22.4542C81.7604 22.1685 83.2324 21.8131 84.7948 21.4323C85.3887 21.2863 85.9375 21.153 86.454 21.0261C86.0989 21.8956 86.0602 22.7969 86.3701 23.603C86.7639 24.6248 87.6484 25.3547 88.8686 25.6657C89.7015 25.8815 90.5472 25.9513 91.4898 25.9513C91.8449 25.9513 92.2065 25.9386 92.5938 25.9259C93.7366 25.8752 94.8212 25.6911 95.964 25.4944L96.1576 25.4626C100.645 24.5487 104.551 23.0508 108.024 21.6862C109.102 21.3117 110.213 20.8547 111.317 20.3977C111.691 20.2391 112.072 20.0867 112.447 19.9281C113.073 19.725 113.706 19.414 114.319 19.1093C114.319 19.1093 114.435 19.0458 114.48 19.0268C114.584 18.9951 114.758 18.9887 114.79 19.0141C114.79 19.0141 114.816 19.1093 114.609 19.3822C114.59 19.4076 114.532 19.4774 114.525 19.4838C114.157 19.9281 113.796 20.4041 113.48 20.823C112.311 22.3653 111.11 23.9647 109.064 24.847C107.056 25.7609 104.964 26.9224 102.833 28.2997C102.711 28.3949 98.3011 31.6446 99.2631 33.3265C99.489 33.72 99.9603 33.9422 100.548 33.9422C100.606 33.9422 100.671 33.9422 100.735 33.9358C101.639 33.9358 102.472 33.6375 103.092 33.3709C105.229 32.4697 108.689 29.9944 110.168 28.1791C111.756 26.3258 113.789 25.0247 116.185 24.3075C116.185 24.3075 129.581 19.2362 131.673 18.7475L132.435 18.5698C132.274 18.7348 132.112 18.8999 131.964 19.0649C131.802 19.2362 130.311 20.4485 130.117 20.6199C129.465 21.1848 128.807 22.086 129.136 22.7715C129.523 23.5776 130.253 23.8251 130.982 23.9267C131.279 23.9711 131.576 23.9457 131.873 23.9013C133.022 23.7236 136.07 22.8984 137.794 22.3209C139.214 21.8448 140.253 21.5212 140.873 21.2609C142.39 20.6199 144.398 19.8646 144.592 19.8075C145.05 19.6678 145.748 19.452 145.98 19.6107C146.012 19.6361 146.058 19.6742 146.064 19.7821C146.006 22.4097 145.754 23.9013 148.278 24.2123C148.537 24.244 148.801 24.244 149.066 24.244C149.75 24.244 151.268 24.0917 152.094 23.9457C155.813 23.2666 158.938 22.0797 162.256 20.6199C162.676 20.4358 163.089 20.2518 163.489 20.0804C164.496 19.6425 165.006 19.2236 165.006 18.8427C165.006 18.7031 164.948 18.5889 164.832 18.5063L164.826 18.5ZM109.219 18.6142C108.708 18.7729 108.218 18.9316 107.682 19.103L107.585 19.1347C107.101 19.2934 106.578 19.4584 105.978 19.6425L105.881 19.6742L105.926 19.5853C106.591 18.2398 107.501 17.4908 108.437 17.4908C108.657 17.4908 108.876 17.5353 109.096 17.6178C109.283 17.6622 109.503 17.9161 109.606 18.1065L109.625 18.1636C109.625 18.2525 109.393 18.5635 109.231 18.6142H109.219ZM108.392 27.354C108.121 27.6523 107.837 27.9633 107.688 28.103C106.888 28.8265 104.054 30.7496 103.111 31.3653C103.046 31.4097 102.975 31.4605 102.891 31.5113C102.594 31.7144 102.188 31.9936 101.942 32.0444C101.697 32.0952 101.62 32.0571 101.607 32.0444C101.523 31.8858 101.923 31.2193 102.285 30.9147C103.524 29.8611 106.875 27.4302 108.637 27.0874C108.56 27.17 108.476 27.2652 108.392 27.3604V27.354Z" fill="#0052FF"/>
<path d="M94.8277 14.0434C96.2222 13.9101 97.5458 13.6118 98.8499 13.123C99.4632 12.8946 100.283 12.2725 100.399 11.5934C100.516 10.8889 99.7602 10.9587 99.3018 11.1301C98.4109 11.4665 97.4683 11.6886 96.5192 11.7838C95.7703 11.8536 95.073 12.2916 94.634 12.8882C94.408 13.1992 94.0659 14.1195 94.8277 14.0434V14.0434Z" fill="#0052FF"/>
<path d="M98.7983 29.9756C89.1592 30.4389 80.2561 30.9467 69.2354 31.6575C68.8029 31.6829 68.2993 31.8225 68.3316 32.3303C68.3767 33.0602 69.4614 34.0567 70.404 33.9869H71.6952C80.9082 33.3204 88.6298 32.8 97.3327 32.2795C98.5981 32.216 100.096 29.9311 98.7983 29.9692V29.9756Z" fill="#0052FF"/>
<path d="M158.88 27.1641C142.281 27.1895 128.2 28.7191 111.356 29.4109C109.845 29.4935 106.843 31.7784 108.638 31.6641C128.703 30.5597 145.761 28.6557 162.631 28.3827C163.044 28.3827 163.367 28.1733 163.367 28.0083C163.367 27.71 162.424 27.1578 158.88 27.1641V27.1641Z" fill="#0052FF"/>
</g>
<defs>
<clipPath id="clip0_856_14112">
<rect width="164" height="27" fill="white" transform="translate(1 7)"/>
</clipPath>
</defs>
</svg>